HIERARCHY
ROOT Hips
{
 OFFSET 0.000000 0.000000 0.000000
 CHANNELS 6 Xposition Yposition Zposition Yrotation Xrotation Zrotation
 JOINT Chest
 {
  OFFSET 0.000000 9.585900 0.002600
  CHANNELS 3 Yrotation Xrotation Zrotation
  JOINT Chest2
  {
   OFFSET 0.000000 9.601200 -0.005300
   CHANNELS 3 Yrotation Xrotation Zrotation
   JOINT Chest3
   {
    OFFSET 0.000000 9.561800 0.000000
    CHANNELS 3 Yrotation Xrotation Zrotation
    JOINT Chest4
    {
     OFFSET 0.000000 9.552100 0.000000
     CHANNELS 3 Yrotation Xrotation Zrotation
     JOINT Neck
     {
      OFFSET 0.000000 14.453000 0.000000
      CHANNELS 3 Yrotation Xrotation Zrotation
      JOINT Head
      {
       OFFSET 0.000000 8.936500 -0.011300
       CHANNELS 3 Yrotation Xrotation Zrotation
       End Site
       {
        OFFSET 0.000000 17.073600 -0.006000
       }
      }
     }
     JOINT RightCollar
     {
      OFFSET -2.921100 9.558500 0.000000
      CHANNELS 3 Yrotation Xrotation Zrotation
      JOINT RightShoulder
      {
       OFFSET -13.519700 0.000000 0.000000
       CHANNELS 3 Yrotation Xrotation Zrotation
       JOINT RightElbow
       {
        OFFSET 0.000000 -29.696600 0.000000
        CHANNELS 3 Yrotation Xrotation Zrotation
        JOINT RightWrist
        {
         OFFSET 0.000000 -24.004700 0.000000
         CHANNELS 3 Yrotation Xrotation Zrotation
         End Site
         {
          OFFSET 0.000000 -17.728500 0.000000
         }
        }
       }
      }
     }
     JOINT LeftCollar
     {
      OFFSET 2.921100 9.558500 0.000000
      CHANNELS 3 Yrotation Xrotation Zrotation
      JOINT LeftShoulder
      {
       OFFSET 13.519700 0.000000 0.000000
       CHANNELS 3 Yrotation Xrotation Zrotation
       JOINT LeftElbow
       {
        OFFSET 0.000000 -29.696600 0.000000
        CHANNELS 3 Yrotation Xrotation Zrotation
        JOINT LeftWrist
        {
         OFFSET 0.000000 -24.004700 0.000000
         CHANNELS 3 Yrotation Xrotation Zrotation
         End Site
         {
          OFFSET 0.000000 -17.728500 0.000000
         }
        }
       }
      }
     }
    }
   }
  }
 }
 JOINT RightHip
 {
  OFFSET -7.771700 -0.012900 -0.001300
  CHANNELS 3 Yrotation Xrotation Zrotation
  JOINT RightKnee
  {
   OFFSET 0.000000 -40.869800 0.001200
   CHANNELS 3 Yrotation Xrotation Zrotation
   JOINT RightAnkle
   {
    OFFSET 0.000000 -39.717900 0.002100
    CHANNELS 3 Yrotation Xrotation Zrotation
    JOINT RightToe
    {
     OFFSET 0.000000 -4.965400 11.033500
     CHANNELS 3 Yrotation Xrotation Zrotation
     End Site
     {
      OFFSET 0.000000 -1.423100 5.872300
     }
    }
   }
  }
 }
 JOINT LeftHip
 {
  OFFSET 7.771700 -0.012900 -0.001300
  CHANNELS 3 Yrotation Xrotation Zrotation
  JOINT LeftKnee
  {
   OFFSET 0.000000 -40.869800 0.001200
   CHANNELS 3 Yrotation Xrotation Zrotation
   JOINT LeftAnkle
   {
    OFFSET 0.000000 -39.717900 0.002100
    CHANNELS 3 Yrotation Xrotation Zrotation
    JOINT LeftToe
    {
     OFFSET 0.000000 -4.965400 11.033500
     CHANNELS 3 Yrotation Xrotation Zrotation
     End Site
     {
      OFFSET 0.000000 -1.423100 5.872300
     }
    }
   }
  }
 }
}
MOTION
Frames: 11
Frame Time: 0.008333
0.000000 85.388000 0.000000 0.000000 -5.767877 0.000000 0.000000 11.653817 0.000000 0.000000 -5.885947 0.000000 0.000000 -0.000000 0.000000 0.000000 -0.000000 0.000000 0.000000 12.528835 0.000000 0.000000 0.711642 0.000000 0.000000 -0.000000 0.000000 0.000000 0.000000 -90.000000 0.000000 -2.309062 0.000000 0.000000 2.309062 0.000000 0.000000 -0.000000 0.000000 0.000000 -0.000000 90.000000 0.000000 -2.309062 0.000000 0.000000 2.309062 0.000000 0.000000 8.520406 0.000000 0.000000 1.905762 0.000000 -0.000000 -4.658285 0.000000 0.000000 -0.000000 0.000000 0.000000 8.520406 0.000000 0.000000 1.905762 0.000000 -0.000000 -4.658285 0.000000 0.000000 -0.000000 0.000000
0.239308 49.645267 26.461663 175.869067 -34.723100 -7.063775 7.429206 22.070728 7.207395 0.909745 3.283873 0.655060 1.467515 5.380555 1.116972 5.792128 18.601052 4.610828 -2.978867 20.296748 2.034242 -6.064443 2.137409 4.604461 -0.528965 2.431500 -3.236098 8.824882 -21.125633 -16.932611 -164.125750 -51.955148 172.477909 2.129906 -7.229307 23.757694 -14.086834 0.374141 1.158766 -5.643787 -25.305147 7.187971 157.069695 -53.601066 175.896246 12.893213 -13.858262 -5.636949 -1.831429 -44.621878 8.878785 -122.293384 79.875325 -109.076198 -0.017809 -17.117885 -4.605789 -0.430299 1.380514 -0.193746 -8.714091 -49.469591 13.867740 -166.864266 78.159209 -173.079425 1.344959 -18.142840 5.783757 -0.028554 -0.208091 -0.021818
0.239810 49.640600 26.457430 175.862149 -34.708507 -7.071244 7.433684 22.070827 7.220478 0.896727 3.342407 0.672988 1.473977 5.354283 1.106692 5.786190 18.614450 4.619477 -2.991067 20.261109 2.008219 -6.122023 2.157481 4.581144 -0.509027 2.412138 -3.261922 8.864219 -21.339972 -17.013024 -164.358606 -51.936414 172.587108 2.153880 -7.180056 23.683065 -14.104492 0.316683 1.137360 -5.766606 -25.464569 7.260094 156.914074 -53.494582 176.012755 12.897523 -13.861073 -5.562723 -1.845950 -44.637551 8.892617 -122.348736 79.880031 -109.130634 -0.003616 -17.122206 -4.611707 -0.437245 1.382643 -0.197437 -8.727665 -49.487899 13.889380 -166.833727 78.143236 -173.051826 1.353209 -18.152443 5.787523 -0.058741 -0.207473 -0.023698
0.239597 49.635832 26.452337 175.851367 -34.695968 -7.072578 7.437273 22.075316 7.227421 0.897503 3.365487 0.677880 1.474207 5.363358 1.109896 5.783242 18.628263 4.627207 -3.047745 20.309114 2.001340 -6.136259 2.086534 4.540322 -0.501219 2.385542 -3.283806 8.906223 -21.547123 -17.082436 -164.521568 -51.930159 172.645128 2.174124 -7.112979 23.659164 -14.119012 0.255319 1.123648 -5.870929 -25.620336 7.327282 156.732846 -53.389101 176.133629 12.881584 -13.846320 -5.426975 -1.851955 -44.651074 8.894836 -122.421892 79.891193 -109.202797 0.023160 -17.127580 -4.613896 -0.456237 1.386045 -0.208400 -8.732869 -49.503955 13.902127 -166.843234 78.128360 -173.064030 1.359311 -18.163353 5.789049 -0.048628 -0.207233 -0.023809
0.240102 49.630630 26.448141 175.848250 -34.676468 -7.082666 7.442511 22.088789 7.244067 0.895948 3.361960 0.676620 1.476084 5.380884 1.115191 5.779064 18.627888 4.628452 -3.069168 20.314506 1.990414 -6.177666 2.072262 4.521282 -0.491500 2.369460 -3.301546 8.930110 -21.744116 -17.136320 -164.642767 -51.932020 172.675836 2.182655 -7.035380 23.681713 -14.121509 0.207987 1.115840 -5.970581 -25.770309 7.388485 156.557642 -53.286761 176.238147 12.835924 -13.814188 -5.214120 -1.875407 -44.669258 8.910315 -122.461482 79.891726 -109.240454 0.040742 -17.135298 -4.621684 -0.465381 1.390603 -0.213238 -8.726697 -49.532605 13.904824 -166.879858 78.112516 -173.085060 1.362431 -18.171233 5.789251 -0.050622 -0.206892 -0.023455
0.240396 49.625835 26.444181 175.837612 -34.658376 -7.086169 7.448224 22.105129 7.254360 0.908923 3.360969 0.678932 1.471914 5.380455 1.116407 5.773468 18.610131 4.621912 -3.077857 20.348231 1.989591 -6.223405 2.068750 4.516164 -0.487032 2.382685 -3.311119 8.944286 -21.929184 -17.176381 -164.769629 -51.936476 172.713718 2.179789 -6.964031 23.726572 -14.147355 0.204443 1.110079 -6.044712 -25.927346 7.451215 156.421247 -53.188581 176.312211 12.760276 -13.763945 -4.924171 -1.903706 -44.690064 8.935806 -122.530517 79.900549 -109.314180 0.026705 -17.133862 -4.635094 -0.457074 1.384998 -0.209251 -8.715195 -49.558248 13.909308 -166.833384 78.095456 -173.025382 1.364375 -18.178366 5.788522 -0.038480 -0.208285 -0.019358
0.240691 49.621477 26.440955 175.827017 -34.639464 -7.088275 7.463438 22.115843 7.270099 0.921473 3.364870 0.676774 1.458180 5.355466 1.113686 5.784630 18.651638 4.639387 -3.090488 20.341518 1.975237 -6.274331 2.082486 4.528165 -0.496710 2.376726 -3.342333 8.954591 -22.121083 -17.199086 -164.942488 -51.941717 172.786808 2.173166 -6.916665 23.756361 -14.179359 0.159850 1.105543 -6.121985 -26.079797 7.510642 156.350430 -53.095688 176.344427 12.670898 -13.708584 -4.575668 -1.915459 -44.711887 8.951366 -122.561619 79.900725 -109.347437 0.032748 -17.134735 -4.633130 -0.462096 1.386240 -0.215355 -8.698875 -49.583837 13.911729 -166.863784 78.082962 -173.042076 1.349209 -18.187530 5.793327 -0.038238 -0.205676 -0.018577
0.241264 49.618101 26.438107 175.814391 -34.623668 -7.089218 7.494948 22.116358 7.285675 0.911448 3.368556 0.675982 1.479069 5.360914 1.117057 5.825683 18.679988 4.647708 -3.145333 20.301718 1.987530 -6.312160 2.111426 4.542152 -0.556412 2.323721 -3.337845 8.965981 -22.261302 -17.217283 -165.183941 -51.946436 172.915466 2.169098 -6.902123 23.735656 -14.273663 0.105373 1.127760 -6.196532 -26.223554 7.572485 156.358574 -53.014654 176.331733 12.586272 -13.673809 -4.207032 -1.923332 -44.728136 8.966213 -122.583653 79.903437 -109.372022 0.046092 -17.142707 -4.633478 -0.467035 1.395459 -0.219615 -8.691505 -49.603642 13.919665 -166.909157 78.072778 -173.080210 1.339998 -18.195295 5.794090 -0.052961 -0.204037 -0.018583
0.242499 49.616452 26.434752 175.806703 -34.617075 -7.095070 7.515555 22.124898 7.297584 0.891889 3.379715 0.680268 1.487817 5.396237 1.118196 5.832413 18.624312 4.635740 -3.152049 20.316535 1.989471 -6.357023 2.156666 4.569769 -0.559467 2.325116 -3.341288 8.967048 -22.332882 -17.221772 -165.535491 -51.901638 173.135201 2.165083 -6.926220 23.646650 -14.315222 0.091840 1.126129 -6.283237 -26.353431 7.637400 156.436969 -52.949662 176.282966 12.514030 -13.679624 -3.861496 -1.936003 -44.731889 8.984631 -122.591428 79.905543 -109.377422 0.047771 -17.150217 -4.645847 -0.462258 1.402377 -0.213628 -8.687796 -49.611791 13.929414 -166.963611 78.064361 -173.128003 1.331360 -18.203403 5.795058 -0.052518 -0.204331 -0.018366
0.242773 49.615561 26.431925 175.799234 -34.610414 -7.094267 7.507544 22.144495 7.298064 0.885953 3.391995 0.679166 1.486923 5.403476 1.118216 5.841347 18.626958 4.635822 -3.190826 20.366828 2.006462 -6.364270 2.136421 4.569745 -0.548689 2.299724 -3.365384 8.969723 -22.410971 -17.223515 -165.948336 -51.870769 173.402612 2.155269 -6.990190 23.487339 -14.320822 0.036693 1.117964 -6.399316 -26.476531 7.697545 156.556898 -52.897674 176.220154 12.449864 -13.730303 -3.575107 -1.944868 -44.736554 8.997161 -122.592105 79.908653 -109.384541 0.053717 -17.154543 -4.646611 -0.469134 1.407645 -0.215519 -8.665149 -49.621187 13.919319 -167.010042 78.058973 -173.161004 1.325925 -18.209465 5.796260 -0.045730 -0.203082 -0.019703
0.242676 49.615237 26.430088 175.792294 -34.600238 -7.091068 7.490510 22.168831 7.291475 0.891662 3.392374 0.677670 1.486156 5.409313 1.118230 5.809757 18.678606 4.638814 -3.181536 20.353113 2.008425 -6.364360 2.109064 4.576142 -0.504906 2.237673 -3.393965 8.988601 -22.538253 -17.239573 -166.392590 -51.902220 173.690023 2.136688 -7.081021 23.260788 -14.312908 -0.048412 1.119585 -6.494594 -26.602867 7.743778 156.688107 -52.853395 176.162413 12.395471 -13.816552 -3.364371 -1.953840 -44.745767 9.003528 -122.628763 79.918552 -109.417190 0.033982 -17.156839 -4.657873 -0.458232 1.407618 -0.209607 -8.640746 -49.632705 13.905596 -167.028759 78.056389 -173.170928 1.339732 -18.218186 5.795519 -0.050936 -0.200607 -0.018899
